Coordinates
version=1
nRows=49
nColumns=12
inDegrees=yes

Units are S.I. units (second, meters, Newtons, ...)
Angles are in degrees

endheader
time	SC_y	SC_z	SC_x	AC_y	AC_z	AC_x	GH_y	GH_z	GH_yy	EL_x	PS_y
       0.0              -38.99          14.09          50.28          67.42         -9.713         -16.49         -114.4           87.4          61.55          31.15          80.46
   0.04569              -38.98          14.09          50.28          67.42         -9.712         -16.49         -114.3          87.39          61.55          31.16          80.46
   0.09138              -38.98          14.09          50.27          67.42          -9.71         -16.49         -114.3          87.39          61.55          31.17          80.46
    0.1371              -38.98           14.1          50.27          67.42         -9.708         -16.48         -114.3          87.38          61.54          31.19          80.47
    0.1828              -38.98           14.1          50.26          67.41         -9.706         -16.48         -114.2          87.38          61.54           31.2          80.47
    0.2285              -38.98           14.1          50.25          67.41         -9.704         -16.48         -114.2          87.37          61.54          31.22          80.48
    0.2741              -38.98          14.11          50.25          67.41         -9.702         -16.48         -114.1          87.37          61.53          31.24          80.49
    0.3198              -38.98          14.11          50.24           67.4           -9.7         -16.47         -114.1          87.36          61.53          31.26          80.49
    0.3655              -38.97          14.12          50.23           67.4         -9.697         -16.47         -114.1          87.35          61.53          31.28           80.5
    0.4112              -38.97          14.12          50.22          67.39         -9.695         -16.46         -114.0          87.34          61.52           31.3          80.51
    0.4569              -38.97          14.13          50.21          67.39         -9.692         -16.46         -113.9          87.34          61.52          31.32          80.51
    0.5026              -38.97          14.13           50.2          67.39         -9.689         -16.45         -113.9          87.33          61.51          31.35          80.52
    0.5483              -38.96          14.14          50.19          67.38         -9.685         -16.45         -113.8          87.32          61.51          31.37          80.53
     0.594              -38.96          14.15          50.18          67.38         -9.682         -16.44         -113.8          87.31           61.5           31.4          80.54
    0.6397              -38.96          14.16          50.17          67.37         -9.678         -16.44         -113.7           87.3           61.5          31.44          80.55
    0.6854              -38.95          14.16          50.15          67.36         -9.673         -16.43         -113.6          87.29          61.49          31.47          80.57
     0.731              -38.95          14.17          50.14          67.36         -9.669         -16.42         -113.5          87.27          61.49          31.51          80.58
    0.7767              -38.95          14.18          50.12          67.35         -9.664         -16.42         -113.4          87.26          61.48          31.55          80.59
    0.8224              -38.94          14.19           50.1          67.34         -9.658         -16.41         -113.3          87.24          61.47          31.59          80.61
    0.8681              -38.94          14.21          50.08          67.33         -9.652          -16.4         -113.2          87.23          61.46          31.64          80.62
    0.9138              -38.93          14.22          50.06          67.32         -9.646         -16.39         -113.1          87.21          61.45          31.69          80.64
    0.9595              -38.92          14.23          50.04          67.31         -9.639         -16.38         -112.9          87.19          61.44          31.75          80.66
     1.005              -38.92          14.25          50.01           67.3         -9.631         -16.37         -112.8          87.17          61.43          31.82          80.68
     1.051              -38.91          14.27          49.98          67.28         -9.622         -16.35         -112.6          87.14          61.42          31.89          80.71
     1.097               -38.9          14.29          49.95          67.27         -9.612         -16.34         -112.4          87.12           61.4          31.97          80.74
     1.142              -38.89          14.31          49.91          67.25         -9.601         -16.32         -112.2          87.09          61.38          32.06          80.77
     1.188              -38.88          14.33          49.87          67.23         -9.589          -16.3         -112.0          87.05          61.37          32.16           80.8
     1.234              -38.87          14.36          49.83          67.21         -9.575         -16.28         -111.7          87.01          61.35          32.27          80.84
     1.279              -38.86          14.39          49.77          67.19         -9.559         -16.26         -111.4          86.97          61.32          32.39          80.88
     1.325              -38.84          14.42          49.72          67.16         -9.541         -16.23         -111.1          86.92           61.3          32.54          80.93
     1.371              -38.83          14.46          49.65          67.13         -9.521          -16.2         -110.7          86.87          61.27           32.7          80.99
     1.416              -38.81          14.51          49.57          67.09         -9.498         -16.16         -110.3           86.8          61.23          32.89          81.05
     1.462              -38.79          14.56          49.48          67.05         -9.471         -16.12         -109.8          86.73          61.19          33.11          81.12
     1.508              -38.76          14.62          49.38           67.0          -9.44         -16.07         -109.2          86.64          61.15          33.36          81.21
     1.553              -38.73           14.7          49.26          66.95         -9.403         -16.02         -108.5          86.54          61.09          33.66          81.31
     1.599              -38.69          14.78          49.12          66.88          -9.36         -15.95         -107.7          86.42          61.03           34.0          81.43
     1.645              -38.65          14.88          48.95           66.8         -9.309         -15.87         -106.7          86.28          60.95          34.42          81.57
     1.691               -38.6           15.0          48.75          66.71         -9.247         -15.78         -105.6          86.11          60.86          34.91          81.74
     1.736              -38.54          15.15           48.5           66.6         -9.173         -15.67         -104.1          85.91          60.75          35.51          81.95
     1.782              -38.46          15.33           48.2          66.46         -9.082         -15.53         -102.4          85.66          60.62          36.25           82.2
     1.828              -38.37          15.55          47.83          66.29          -8.97         -15.35         -100.3          85.35          60.45          37.15          82.51
     1.873              -38.25          15.82          47.37          66.07         -8.831         -15.14         -97.68          84.97          60.24          38.28          82.89
     1.919              -38.11          16.17          46.79           65.8         -8.655         -14.87         -94.36          84.48          59.98           39.7          83.38
     1.965              -37.92          16.61          46.05          65.46         -8.432         -14.53         -90.13          83.87          59.65          41.51           84.0
      2.01              -37.69          17.17          45.11          65.03         -8.145         -14.09         -84.73          83.08          59.23          43.82          84.79
     2.056              -37.38          17.89           43.9          64.46         -7.778         -13.53         -77.79          82.07          58.68          46.79           85.8
     2.102              -36.99          18.81          42.35          63.75         -7.309         -12.81         -68.92          80.77          57.99          50.58          87.09
     2.147               -36.5          19.97          40.41          62.84         -6.719         -11.91         -57.78          79.15          57.11          55.35          88.72
     2.193              -35.91          21.39          38.04          61.75         -6.001         -10.81          -44.2          77.17          56.04          61.16          90.71
